PathFileType	4	(X/Y/Z)	C:\Users\WrightLab\Desktop\Jo\P3_9.trc
DataRate	CameraRate	NumFrames	NumMarkers	Units	OrigDataRate	OrigDataStartFrame	OrigNumFrames
100.00	100.00	       17	19	mm	100.00	201	       535
Frame#	Time	Headset_Front			Headset_Back			Headset_Left			Headset_Right			Left_Shoulder			Right_Shoulder			Sternum			C7			Left Elbow			Right Elbow			Left Wrist			Right Wrist			Left ASIS			Right ASIS			S2			Left Knee			Right Knee			Left Ankle			Right Ankle			
		X1	Y1	Z1	X2	Y2	Z2	X3	Y3	Z3	X4	Y4	Z4	X5	Y5	Z5	X6	Y6	Z6	X7	Y7	Z7	X8	Y8	Z8	X9	Y9	Z9	X10	Y10	Z10	X11	Y11	Z11	X12	Y12	Z12	X13	Y13	Z13	X14	Y14	Z14	X15	Y15	Z15	X16	Y16	Z16	X17	Y17	Z17	X18	Y18	Z18	X19	Y19	Z19	

201	2.000	-138.31464	1421.72607	894.59631	-12.12115	1651.11987	1045.78198	-149.45007	1561.61926	1051.19177				-162.46082	1366.68127	1172.77637	175.73686	1381.90344	1057.81775	-32.75663	1246.10352	1001.47870	23.75580	1433.37634	1152.08398	-226.35727	1046.69055	1257.43591	290.18243	1046.44836	1054.62854	-297.01187	861.40027	1191.88916	251.71393	867.65735	914.42645	-103.61098	887.10431	1057.97656	53.33133	982.09766	1240.41077				-113.95423	493.18369	962.86011	165.12756	476.00876	1070.56995	-35.12877	237.81116	1168.59998	169.58542	143.86574	1140.06616	
202	2.010	-139.26712	1422.78369	886.65070	-13.14114	1651.54480	1038.45496	-150.45866	1561.89392	1043.63452	-7.21856	1495.55994	876.60846	-162.62498	1367.24426	1166.53516	174.36661	1381.66357	1047.94128	-35.02870	1246.52319	994.11731	23.22092	1433.55957	1143.58838	-223.69202	1047.19885	1253.69226	288.41473	1046.07910	1043.76868	-293.45337	860.70715	1190.43896	248.95341	867.85663	903.22076	-105.13378	886.75031	1052.16980	53.52328	982.30963	1232.39746				-116.64122	495.06522	952.32263	164.93309	475.97684	1067.58142	-35.65620	229.98366	1145.49915	169.55673	143.97720	1139.97717	
203	2.020	-140.40594	1423.41907	879.11243	-13.00611	1651.19312	1031.14673	-151.54265	1562.25024	1036.08740				-163.30391	1367.50403	1159.75122	172.93507	1381.25659	1039.18774	-36.61557	1245.75024	986.55475	23.07644	1432.74683	1135.63550	-221.37660	1047.03467	1249.48413	286.82690	1045.44360	1032.52673	-289.79816	859.61017	1188.63501	245.78249	867.53552	892.40625	-106.88073	886.73218	1045.41833	53.72704	981.86237	1225.16626				-118.68869	496.60364	942.03925	165.38574	476.30054	1065.44714	-36.77629	221.58121	1120.89905	169.65410	144.08743	1139.76465	
204	2.030	-141.31273	1423.94006	870.36218	-13.44156	1650.83472	1023.96991	-152.27834	1562.15344	1028.41553	-9.07220	1497.18970	861.12531	-163.58887	1367.32300	1153.20557	171.22458	1380.90332	1030.05017	-39.11507	1245.76111	978.96082	21.97629	1432.36682	1127.27429	-219.00806	1047.27612	1245.51563	285.02179	1044.83374	1022.43286	-286.15207	858.64313	1186.64404	242.96144	866.83496	881.56238	-108.38890	886.50989	1039.17578	53.05637	981.94818	1217.95410	131.93834	899.56860	989.32520	-121.38256	497.21942	933.10797	163.83833	475.03827	1063.38196	-39.11721	213.23904	1097.10645	169.40498	144.45734	1139.24988	
205	2.040	-142.90582	1424.77136	861.70575	-14.72248	1650.33545	1017.25470	-153.60533	1561.90784	1021.05511	-10.20330	1497.10828	854.34247	-164.54333	1367.31946	1146.38330	169.63911	1379.85681	1020.58069	-41.48640	1244.88867	971.48358	21.00759	1432.01172	1119.22583	-216.96065	1047.32422	1240.91418	282.99277	1043.31104	1011.82581	-282.48044	856.94263	1184.13782	239.28954	866.62579	870.84442	-109.63659	885.24359	1033.00757	52.55024	981.86505	1210.76563	133.59779	899.60504	983.45294	-124.20065	498.20203	924.71234	163.66693	474.44659	1060.78064	-41.59163	204.83881	1071.95593	169.02405	144.37291	1139.09033	
206	2.050	-143.95023	1425.78638	853.78571	-16.14596	1650.28967	1010.40912	-154.73648	1561.86792	1013.53503	-11.36810	1498.34790	845.20959	-165.47925	1366.89368	1139.58887	167.84700	1379.20081	1011.17456	-43.90342	1244.29028	964.10284	19.95091	1431.26282	1110.81433	-214.79704	1047.17944	1236.90259	280.43802	1042.41663	1001.09900	-279.10330	855.70953	1181.66638	235.63170	866.18335	860.35040	-110.99217	884.46692	1026.94385	51.52354	981.50824	1202.71057				-126.96252	497.95810	916.73743	162.76492	474.26175	1057.49780	-45.50946	196.71715	1047.91833	168.87613	144.20561	1138.13000	
207	2.060	-145.42625	1426.04272	844.99084	-17.49205	1649.58777	1003.76898	-156.18378	1561.17590	1006.05865	-12.22929	1498.00732	839.68420	-166.72786	1366.48743	1132.49719	165.58717	1377.73291	1001.99042	-46.35455	1243.01257	956.24323	18.70686	1430.15259	1102.89014	-213.40718	1046.50781	1231.94617	278.47900	1041.60498	990.68372	-275.48911	854.08850	1179.39868	231.59966	865.31543	850.39655	-112.70723	883.14795	1020.35046	50.44221	981.05017	1195.75122				-129.51572	497.78360	909.11505	161.95229	473.41278	1054.35840	-50.02073	188.25591	1023.12531	168.41272	144.29570	1137.83044	
208	2.070	-146.39030	1426.88159	837.15479	-18.76173	1648.54089	997.33948	-157.39273	1560.65564	998.41663	-13.59450	1499.02307	829.63062	-168.10452	1365.58594	1125.17688	163.65744	1376.90503	992.47827	-48.68375	1241.61243	948.43311	17.24382	1429.46094	1094.69019	-211.64719	1046.12854	1226.67163	275.85025	1040.10486	980.22693	-272.19342	852.13788	1176.34668	227.48740	864.54437	840.48914	-114.50787	882.25702	1012.73608	49.22884	980.67975	1188.76965				-131.77803	496.76379	902.63733	160.55629	472.40961	1051.50476	-56.39824	181.02019	998.59875	167.54688	143.95634	1137.17493	
209	2.080	-147.85358	1427.11414	828.28326	-20.05339	1647.48718	990.85358	-159.40311	1560.18860	991.03436	-14.60222	1498.97021	823.83881	-169.98579	1364.51086	1118.00671	161.78566	1375.38684	983.51508	-51.22968	1240.52197	940.75000	15.91572	1427.89404	1086.32434	-210.18990	1045.08984	1221.30481	273.90280	1038.89270	970.76227	-268.75912	850.49268	1173.90967	223.33403	863.73407	828.97882	-116.05173	880.76422	1005.84564	47.51732	980.10632	1181.08557	125.20242	893.59863	953.57770	-133.96472	495.45029	896.23792	159.76157	471.64090	1048.43774	-62.58068	173.82416	973.38934	166.44809	144.13560	1136.19141	
210	2.090	-149.32695	1428.02258	819.86096	-21.32648	1646.42236	984.39661	-160.08975	1559.19482	982.66431	-15.78460	1499.07104	816.81982	-171.62639	1363.04810	1110.71094	159.17941	1373.97437	975.06738	-53.44001	1238.69641	933.00391	13.90514	1426.54639	1078.54028	-209.18930	1044.12732	1216.28674	270.88226	1037.10596	960.39130	-265.71387	848.35461	1170.78308	219.08267	863.01703	819.01404	-117.65816	879.22211	998.57263	48.34852	980.26508	1175.62646				-135.75531	493.54172	891.08154	158.01929	471.08438	1045.25024	-70.35545	167.78535	949.31390	165.69774	144.02933	1135.56396	
211	2.100	-150.67154	1428.60022	811.19214	-23.33959	1645.35669	978.27856	-162.07040	1557.97388	975.20776	-17.28865	1499.29797	808.33929	-173.41618	1361.49121	1103.37048	156.89240	1372.65894	966.21942	-55.59554	1236.92053	924.99823	12.30066	1425.00061	1070.09497	-207.95178	1043.31494	1211.20227	268.41528	1035.77893	951.49792	-262.67535	845.96417	1167.39465	214.38875	861.99207	809.13953	-119.01147	877.45276	991.90845	45.74903	979.94592	1167.14966	127.55784	893.34027	940.34912	-137.52718	491.47134	886.56439	156.06111	469.80774	1041.86499	-78.07884	162.12024	925.51886	163.98134	143.93254	1133.91882	
212	2.110	-151.83546	1428.74902	802.18408	-25.13600	1643.95679	972.17981	-164.39995	1557.25024	967.63275	-18.40849	1499.00500	802.66180	-175.74319	1359.83386	1095.71362	154.66531	1371.01489	957.75977	-58.58416	1235.01770	917.84033	10.33380	1423.40759	1062.12744	-207.19949	1041.49683	1205.43713	265.43390	1033.55310	941.98059	-259.68198	843.39044	1163.60938	209.83195	860.70715	800.05731	-120.69280	875.35858	984.01294	43.52155	978.64258	1160.53442	120.54420	888.38202	929.70746	-138.78575	489.25305	882.57397	153.85643	468.52771	1038.56970	-87.18712	157.89610	902.43597	162.67545	143.78896	1132.56213	
213	2.120	-153.67503	1428.98901	793.58521	-27.58312	1642.37561	966.33832	-165.99586	1555.22827	959.45728	-19.91486	1499.73572	793.03632	-177.78639	1357.71082	1087.84619	152.09320	1369.07068	948.34778	-61.36804	1233.20386	909.73047	7.80408	1421.57202	1054.21191	-206.78372	1039.75146	1199.43213	262.67667	1031.83997	932.50214	-257.05499	840.71344	1159.54248	205.28122	860.08362	789.80518	-123.14616	873.77863	976.07446	41.89516	976.66168	1151.07080				-139.96133	486.20032	877.69177	151.78395	467.72632	1034.82581	-96.93013	154.35999	880.54840	161.31410	143.42131	1131.49841	
214	2.130	-155.28000	1429.01807	784.89294	-29.63552	1640.61353	960.39874	-168.42085	1554.14807	952.22363	-21.17423	1499.38794	787.18042	-180.58638	1356.07581	1080.41797	149.34993	1367.31201	940.33423	-63.54799	1231.22095	901.86060	5.27218	1419.79639	1046.16541	-206.35732	1037.72241	1193.14124	258.96222	1029.66504	923.53040	-254.66893	838.00781	1155.21179	200.48309	858.45673	780.88196	-126.04578	871.94855	967.87579	39.96697	974.66846	1142.56921				-141.25902	483.28070	873.30206	149.66670	465.83136	1030.74109	-105.63577	152.26987	859.34106	160.44283	143.52699	1130.81726	
215	2.140	-156.72887	1429.26270	775.96094	-31.57197	1638.96216	954.36853	-171.00203	1552.81653	944.81165	-22.77347	1499.20178	778.91754	-183.22664	1354.17419	1072.84888	146.29704	1365.48010	931.79492	-66.64465	1229.60498	894.05078	3.12933	1417.64685	1038.31750	-206.31772	1036.11975	1186.80542	255.42342	1027.45496	914.06805	-252.53659	835.12189	1150.65137	196.25490	857.27313	770.93561	-127.76814	870.03198	960.01709	37.63787	972.28632	1134.58044	118.39318	886.49591	906.69733	-142.85588	480.36331	868.50293	147.95634	464.81818	1025.99011	-115.16468	151.13959	839.78217	160.06642	143.35625	1130.21179	
216	2.150	-158.35837	1429.65137	767.31207	-34.00673	1636.94092	948.64764	-174.03157	1551.70227	937.60400	-24.42707	1499.11511	771.28802	-186.09496	1351.88940	1065.25793	143.65347	1363.48779	923.89355	-69.49371	1227.63818	885.80725	0.27996	1415.47107	1030.40625	-206.67624	1033.94263	1180.45984	252.46088	1025.52209	905.94336	-250.34378	832.37109	1145.46973	191.45316	855.70392	762.24243	-130.39420	867.78137	951.70844	35.29042	970.10925	1126.37927				-144.92067	477.34146	864.64984	146.57016	463.56131	1022.37280	-124.12852	150.69632	820.79382	159.83635	143.43684	1129.68970	
217	2.160	-159.92186	1429.51086	758.87805	-36.34942	1635.26746	942.63116	-175.75188	1550.08911	929.32996	-25.97000	1499.09985	765.60046	-189.00534	1349.62878	1057.28943	140.60103	1361.47839	915.98077	-71.99203	1225.53174	877.31201	-3.11434	1413.85498	1022.83862	-206.98618	1031.60510	1173.32983	248.77107	1023.56671	896.60968	-248.33386	829.41803	1139.92041	186.49063	854.18842	753.55518	-133.20998	865.26080	943.78363	33.51508	967.68359	1117.14026				-147.62608	474.89542	860.36346	145.11223	463.13748	1017.89417	-133.10825	150.61293	803.76227	159.49623	143.73398	1128.89355	
